<?xml version="1.0" encoding="utf-8"?>
<!-- Generator: Adobe Illustrator 23.1.0, SVG Export Plug-In . SVG Version: 6.00 Build 0)  -->
<svg version="1.1" id="Слой_1" xmlns="http://www.w3.org/2000/svg" xmlns:xlink="http://www.w3.org/1999/xlink" x="0px" y="0px"
	 viewBox="0 0 111.9 111.9" style="enable-background:new 0 0 111.9 111.9;" xml:space="preserve">
<style type="text/css">
	.st0{fill:none;}
	.st1{fill:#F11716;}
</style>
<g>
	<path class="st0" d="M59.2,74.6L59.2,74.6c-1.9-1.9-5-1.9-6.9,0c-0.9,0.9-1.5,2.2-1.4,3.5c0,1.3,0.5,2.6,1.5,3.5
		c1.9,1.9,5,1.9,6.9-0.1l0,0c0.9-0.9,1.4-2.2,1.4-3.4C60.7,76.8,60.1,75.5,59.2,74.6z"/>
	<path class="st0" d="M56.2,26.6c-1.4-0.1-2.7,0.5-3.7,1.5c-0.9,1.2-1.4,2.6-1.3,4.2c0,1.9,0.2,3.8,0.5,5.7l3.8,30.1h0.7l4.4-31l0,0
		c0.3-1.7,0.4-3.4,0.5-5.1c0.1-1.4-0.4-2.9-1.3-4C58.8,27.1,57.5,26.6,56.2,26.6z"/>
</g>
<path class="st1" d="M59.3,74.8h-6.7c-1.9,0-3.4-1.5-3.4-3.4V19.6c0-1.9,1.5-3.4,3.4-3.4h6.7c1.9,0,3.4,1.5,3.4,3.4v51.8
	C62.7,73.3,61.2,74.8,59.3,74.8z"/>
<path class="st1" d="M59.1,95.7h-6.7c-1.9,0-3.4-1.5-3.4-3.4v-6.7c0-1.9,1.5-3.4,3.4-3.4h6.7c1.9,0,3.4,1.5,3.4,3.4v6.7
	C62.5,94.2,61,95.7,59.1,95.7z"/>
</svg>
