<?xml version="1.0" encoding="utf-8"?>
<!-- Generator: Adobe Illustrator 26.0.1, SVG Export Plug-In . SVG Version: 6.00 Build 0)  -->
<svg version="1.1" id="Слой_1" xmlns="http://www.w3.org/2000/svg" xmlns:xlink="http://www.w3.org/1999/xlink" x="0px" y="0px"
	 viewBox="0 0 111.9 111.9" style="enable-background:new 0 0 111.9 111.9;" xml:space="preserve">
<style type="text/css">
	.st0{fill:#EAE9C1;}
</style>
<g>
	<path class="st0" d="M59.2,72.1C59.2,72.1,59.2,72.1,59.2,72.1c-1.9-1.9-5-1.9-6.9,0c-0.9,0.9-1.5,2.2-1.4,3.5
		c0,1.3,0.5,2.6,1.5,3.5c1.9,1.9,5,1.9,6.9-0.1h0c0.9-0.9,1.4-2.2,1.4-3.4C60.7,74.3,60.1,73,59.2,72.1z"/>
	<path class="st0" d="M56.2,24.1c-1.4-0.1-2.7,0.5-3.7,1.5c-0.9,1.2-1.4,2.6-1.3,4.2c0,1.9,0.2,3.8,0.5,5.7l3.8,30.1h0.7l4.4-31h0
		c0.3-1.7,0.4-3.4,0.5-5.1c0.1-1.4-0.4-2.9-1.3-4C58.8,24.6,57.5,24.1,56.2,24.1z"/>
</g>
</svg>
